<svg width="200" height="50" viewBox="0 0 200 50" xmlns="http://www.w3.org/2000/svg">
  <!-- Elegant Horse Silhouette -->
  <g fill="#c4ab9f">
    <!-- Horse profile -->
    <path d="M15 35 Q10 30 12 25 T18 18 Q22 16 25 18 L28 15 Q30 14 31 16 L32 18 Q35 20 35 25 Q35 30 32 33 L30 35 Q28 36 25 35 Q22 34 20 35 Z" stroke="#c4ab9f" stroke-width="0.5" fill="#c4ab9f"/>
    <!-- Horse mane detail -->
    <path d="M25 18 Q23 15 24 12 Q25 10 27 12 L28 15" stroke="#b49383" stroke-width="0.8" fill="none"/>
  </g>

  <!-- Elegant Typography -->
  <text x="45" y="28" font-family="Georgia, serif" font-size="20" fill="#ffffff" font-weight="500">PANTOS</text>
  <text x="45" y="42" font-family="Georgia, serif" font-size="11" fill="#c4ab9f" letter-spacing="3">EQUESTRIAN</text>

  <!-- Decorative line -->
  <line x1="45" y1="32" x2="180" y2="32" stroke="#c4ab9f" stroke-width="0.5" opacity="0.5"/>
</svg>